<svg t="1703760709798" class="icon" viewBox="0 0 1024 1024" version="1.1" xmlns="http://www.w3.org/2000/svg" p-id="4261" width="200" height="200"><path d="M512.176 960.352c247.52 0 448.176-200.64 448.176-448.16C960.352 264.64 759.712 64 512.192 64 264.64 64 64 264.656 64 512.176c0 247.52 200.656 448.176 448.176 448.176z" fill="#E6532C" p-id="4262"></path><path d="M637.536 563.68s45.808-40.144 45.808-102.288c0-19.52-0.704-57.168-12.432-90.56-14.192-40.48-40.48-78.128-50.416-116.128-7.824-29.824-2.128-52.208 0.704-68.544 0 0-56.464 21.312-59.664 202.432 0 0 0.352-47.584-9.232-95.168-8.16-40.848-34.8-91.632-43.328-126.784-7.456-30.56 1.776-47.6 3.2-52.928 0 0-31.968 5.696-45.104 44.048-17.392 51.84-7.104 74.224-17.04 118.96-8.528 38-23.792 64.64-29.12 69.968 0 0 1.408-128.208-53.28-129.28 0 0 15.632 24.16 3.2 65.36-12.08 39.776-43.328 94.816-47.584 148.08-4.272 53.632 23.072 109.392 44.384 132.48l-136.368-28.064s24.864 75.28 67.12 110.8H717.44s47.232-37.648 69.6-110.8l-149.504 28.416zM297.68 764.656h424.384v-79.2H297.68v79.2z m211.296 139.92c69.248 0 125.728-47.232 130.336-106.528l-261.024-1.776c3.552 60.368 60.736 108.32 130.688 108.32z" fill="#FFFFFF" p-id="4263"></path></svg>