<?xml version="1.0" standalone="no"?><!DOCTYPE svg PUBLIC "-//W3C//DTD SVG 1.1//EN" "http://www.w3.org/Graphics/SVG/1.1/DTD/svg11.dtd"><svg t="1694482129257" class="icon" viewBox="0 0 1070 1024" version="1.1" xmlns="http://www.w3.org/2000/svg" p-id="16703" xmlns:xlink="http://www.w3.org/1999/xlink" width="208.984375" height="200"><path d="M406.388 42.775H198.935c-99.328 0-169.286 82.153-169.286 192.233v126.604l232.402 166.446L406.34 42.822zM29.65 809.332c0 70.377 31.558 133.679 87.971 166.447L230.447 649.96 29.649 509.254v300.078zM1052.16 183.39c0-97.466-76.52-174.406-172.73-174.406-96.303 0-172.777 76.847-172.777 174.313 0 97.513 172.777 315.439 172.777 315.439s172.683-210.246 172.683-315.439v0.093z m-253.999 6.051c0-44.544 38.354-82.013 81.269-82.013 42.822 0 74.426 37.469 74.426 82.013 0 44.59-38.353 82.06-81.222 82.06-42.822 0-74.473-37.47-74.473-82.06z m71.587 434.735l-1.07 2.234a14.43 14.43 0 0 0 1.675-1.397l7.54 9.496 87.506-106.59a510.269 510.269 0 0 0 7.354-9.076v288.07c0 58.647-31.65 110.173-74.426 147.689L377.111 610.025l187.253-567.11h48.22a289.56 289.56 0 0 0-17.221 99.002c0 56.553 23.412 116.643 64.419 189.347 11.962 21.178 25.32 43.055 39.843 65.443a1838.732 1838.732 0 0 0 92.625 129.769l77.498 97.745z m-628.037 377.483h489.658L329.775 727.32l-88.064 274.34z" fill="" p-id="16704"></path></svg>