<?xml version="1.0" standalone="no"?><!DOCTYPE svg PUBLIC "-//W3C//DTD SVG 1.1//EN" "http://www.w3.org/Graphics/SVG/1.1/DTD/svg11.dtd"><svg t="1694480709517" class="icon" viewBox="0 0 1024 1024" version="1.1" xmlns="http://www.w3.org/2000/svg" p-id="6493" xmlns:xlink="http://www.w3.org/1999/xlink" width="200" height="200"><path d="M64 768 64 256l448-256 448 256 0 512-448 256L64 768zM512 940.8l371.2-211.2L883.2 294.4 512 83.2 140.8 294.4l0 428.8L512 940.8z" p-id="6494" fill=""></path><path d="M435.2 486.4 358.4 358.4 435.2 230.4 582.4 230.4 659.2 358.4 582.4 486.4Z" p-id="6495" fill=""></path><path d="M281.6 748.8 211.2 614.4 281.6 486.4 435.2 486.4 512 614.4 435.2 748.8Z" p-id="6496" fill=""></path><path d="M582.4 748.8 512 614.4 582.4 486.4 736 486.4 806.4 614.4 736 748.8Z" p-id="6497" fill=""></path></svg>