<?xml version="1.0" standalone="no"?><!DOCTYPE svg PUBLIC "-//W3C//DTD SVG 1.1//EN" "http://www.w3.org/Graphics/SVG/1.1/DTD/svg11.dtd"><svg t="1694482448045" class="icon" viewBox="0 0 1024 1024" version="1.1" xmlns="http://www.w3.org/2000/svg" p-id="25888" xmlns:xlink="http://www.w3.org/1999/xlink" width="200" height="200"><path d="M389.054392 762.4445c23.499127 71.774507 4.853081 149.423796-48.530806 202.807683-37.547518 37.547518-87.610876 58.236967-140.994762 58.236966-16.091793 0-31.928162-1.787977-47.509104-5.619356L125.96634 1011.484161l129.500623-129.500624-40.101771-73.562484-73.562484-40.101771-129.500624 129.500623-6.385632-26.05338c-16.858069-68.198553 2.809678-138.440509 52.61761-188.248441 37.547518-37.547518 87.610876-58.492392 140.994762-58.492392 21.200299 0 41.889748 3.320529 62.068346 9.706161l2.554253 0.766276L636.05065 263.854328l-0.766276-2.554253c-23.499127-71.774507-4.853081-149.423796 48.530806-202.807683C721.362698 20.689449 771.426055 0 824.554516 0c16.091793 0 31.928162 2.043402 47.509105 5.619356l26.05338 6.385633-129.500624 129.500623 40.101771 73.562485 73.562485 40.101771 129.500623-129.500624 6.385633 26.05338c16.858069 68.198553-2.809678 138.695934-52.617611 188.503866-37.547518 37.547518-87.610876 58.236967-140.994762 58.236967-21.200299 0-41.889748-3.320529-62.068346-9.706161l-2.554253-0.766276L388.288116 759.890247l0.766276 2.554253M50.615878 161.939636c3.575954-14.559242 9.450736-28.352208 16.85807-40.868047l-22.477426-47.509105c8.68446-10.472437 18.135196-20.178598 28.607633-28.607632l47.509104 22.477425c12.515839-7.407333 26.308805-13.282115 40.868047-16.858069L179.605651 1.021701c6.641058-0.766276 13.537541-1.021701 20.434024-1.021701s13.537541 0.255425 20.178598 1.021701l17.624345 49.552507c14.559242 3.575954 28.096782 9.450736 40.868047 16.858069l47.509105-22.477425c10.472437 8.68446 20.178598 18.135196 28.607632 28.607632l-22.477425 47.509105c7.407333 12.515839 13.282115 26.308805 16.858069 40.868047l49.552507 17.624345c0.766276 6.641058 1.021701 13.537541 1.021701 20.178598 0 6.896483-0.255425 13.537541-1.021701 20.178598L349.208046 237.545523c-3.575954 14.559242-9.450736 28.352208-16.858069 40.868046l22.477425 47.509105c-8.68446 10.472437-18.135196 20.178598-28.607632 28.863058l-47.509105-22.477426c-12.515839 7.407333-26.308805 13.282115-40.868047 16.85807l-17.624345 49.552507c-6.641058 0.766276-13.537541 1.021701-20.178598 1.021701-6.896483 0-13.537541-0.255425-20.434024-1.021701l-17.624345-49.552507c-14.559242-3.831379-28.352208-9.450736-40.868047-16.85807l-47.509104 22.477426c-10.472437-8.68446-20.178598-18.135196-28.607633-28.863058l22.477426-47.509105c-7.407333-12.515839-13.282115-26.308805-16.85807-40.868046L1.063371 220.176603c-0.766276-6.641058-1.021701-13.537541-1.021701-20.178599 0-6.896483 0.255425-13.537541 1.021701-20.178598l49.552507-17.87977z m149.168371-42.656024c-44.444001 0-80.714393 36.014966-80.714392 80.714392 0 44.444001 36.014966 80.714393 80.714392 80.714393 44.444001 0 80.714393-36.014966 80.714393-80.714393S244.483676 119.283612 199.784249 119.283612m475.346471 666.660015c3.575954-14.559242 9.450736-28.352208 16.858069-40.868047l-22.477426-47.509105c8.68446-10.472437 18.135196-20.178598 28.607633-28.863058l47.509105 22.477426c12.515839-7.407333 26.308805-13.282115 40.868047-16.858069l17.624345-49.552507c6.641058-0.766276 13.537541-1.021701 20.434023-1.021701s13.537541 0.255425 20.178599 1.021701l17.624345 49.552507c14.559242 3.575954 28.096782 9.450736 40.868047 16.858069l47.509104-22.477426c10.472437 8.68446 20.178598 18.135196 28.607633 28.863058l-22.477426 47.509105c7.407333 12.515839 13.282115 26.308805 16.85807 40.868047l49.552506 17.624345c0.766276 6.641058 1.021701 13.537541 1.021702 20.434024s-0.255425 13.537541-1.021702 20.178598l-49.552506 17.624345c-3.575954 14.559242-9.450736 28.352208-16.85807 40.868047l22.477426 47.509104c-8.68446 10.472437-18.135196 20.178598-28.607633 28.863058l-47.509104-22.477425c-12.515839 7.407333-26.308805 13.282115-40.868047 16.858069l-17.624345 49.552507c-6.641058 0.766276-13.537541 1.021701-20.178599 1.021701-6.896483 0-13.537541-0.255425-20.434023-1.021701l-17.624345-49.552507c-14.559242-3.831379-28.352208-9.450736-40.868047-16.858069l-47.509105 22.477425c-10.472437-8.68446-20.178598-18.135196-28.607633-28.863058l22.477426-47.509104c-7.407333-12.515839-13.282115-26.308805-16.858069-40.868047l-49.552507-17.624345c-0.510851-6.641058-1.021701-13.537541-1.021701-20.178598 0-6.896483 0.255425-13.537541 1.021701-20.178599l49.552507-17.87977z m149.168371-42.911449c-44.444001 0-80.714393 36.014966-80.714393 80.714392s36.014966 80.714393 80.714393 80.714393c44.444001 0 80.714393-36.014966 80.714393-80.714393 0-44.444001-36.014966-80.714393-80.714393-80.714392" fill="" p-id="25889"></path></svg>